HIERARCHY
ROOT Hips
{
	OFFSET 0.000000 88.474243 0.000000
	CHANNELS 6 Xposition Yposition Zposition Zrotation Yrotation Xrotation 
	JOINT Hips_Spine
	{
		OFFSET 0.000000 0.000000 0.000000
		CHANNELS 3 Zrotation Yrotation Xrotation
		JOINT Spine
		{
			OFFSET 0.005100 8.711998 -0.691000
			CHANNELS 3 Zrotation Yrotation Xrotation
			JOINT Spine1
			{
				OFFSET -0.009200 8.660301 -1.275000
				CHANNELS 3 Zrotation Yrotation Xrotation
				JOINT Spine2
				{
					OFFSET 0.006300 9.852501 -1.857000
					CHANNELS 3 Zrotation Yrotation Xrotation
					JOINT Spine2_Neck
					{
						OFFSET 0.000000 0.000000 0.000000
						CHANNELS 3 Zrotation Yrotation Xrotation
						JOINT Neck
						{
							OFFSET 0.016300 11.420799 -0.263300
							CHANNELS 3 Zrotation Yrotation Xrotation
							End Site #name: Head
							{
								OFFSET -0.019200 9.262405 2.362500
							}
						}
					}
					JOINT Spine2_LeftShoulder
					{
						OFFSET 0.000000 0.000000 0.000000
						CHANNELS 3 Zrotation Yrotation Xrotation
						JOINT LeftShoulder
						{
							OFFSET 5.616900 6.732201 -0.345700
							CHANNELS 3 Zrotation Yrotation Xrotation
							JOINT LeftArm
							{
								OFFSET 10.664888 -0.183372 -2.440700
								CHANNELS 3 Zrotation Yrotation Xrotation
								JOINT LeftForeArm
								{
									OFFSET 27.459126 0.000000 0.000000
									CHANNELS 3 Zrotation Yrotation Xrotation
									End Site #name: LeftHand
									{
										OFFSET 21.306858 0.000000 0.000000
									}
								}
							}
						}
					}
					JOINT Spine2_RightShoulder
					{
						OFFSET 0.000000 0.000000 0.000000
						CHANNELS 3 Zrotation Yrotation Xrotation
						JOINT RightShoulder
						{
							OFFSET -5.580300 6.737503 -0.344400
							CHANNELS 3 Zrotation Yrotation Xrotation
							JOINT RightArm
							{
								OFFSET -10.679335 -0.188484 -2.383900
								CHANNELS 3 Zrotation Yrotation Xrotation
								JOINT RightForeArm
								{
									OFFSET -27.503529 0.000000 0.000000
									CHANNELS 3 Zrotation Yrotation Xrotation
									End Site #name: RightHand
									{
										OFFSET -21.306808 0.000000 0.000000
									}
								}
							}
						}
					}
				}
			}
		}
	}
	JOINT Hips_LeftUpLeg
	{
		OFFSET 0.000000 0.000000 0.000000
		CHANNELS 3 Zrotation Yrotation Xrotation
		JOINT LeftUpLeg
		{
			OFFSET 6.857700 -6.739601 0.312100
			CHANNELS 3 Zrotation Yrotation Xrotation
			JOINT LeftLeg
			{
				OFFSET -0.367590 -34.731552 -4.572400
				CHANNELS 3 Zrotation Yrotation Xrotation
				End Site #name: LeftFoot
				{
					OFFSET 0.367590 -34.656704 -6.067400
				}
			}
		}
	}
	JOINT Hips_RightUpLeg
	{
		OFFSET 0.000000 0.000000 0.000000
		CHANNELS 3 Zrotation Yrotation Xrotation
		JOINT RightUpLeg
		{
			OFFSET -6.876100 -6.733299 0.301000
			CHANNELS 3 Zrotation Yrotation Xrotation
			JOINT RightLeg
			{
				OFFSET 0.347353 -34.795158 -4.515900
				CHANNELS 3 Zrotation Yrotation Xrotation
				End Site #name: RightFoot
				{
					OFFSET -0.347353 -34.589367 -6.070300
				}
			}
		}
	}
}
MOTION
Frames: 18
Frame Time: 0.041667
0.173901 0.049944 0.005595 0.571310 21.582528 -6.248917 -0.000000 0.000000 0.000000 -0.774534 -1.254060 0.211255 -0.003551 -1.213515 -0.739865 0.000000 0.000000 0.000000 0.057706 -0.783422 -1.084967 2.540424 -0.299038 -3.505331 0.376043 -1.507126 -1.943463 -17.868855 -8.461640 2.228485 -44.072645 2.651660 10.823504 -0.892899 -30.331023 5.575549 -0.016535 -0.939235 -0.279981 13.873365 11.261126 4.125574 57.101541 -5.634451 -3.796048 -0.379833 46.644828 0.600319 0.000000 0.000000 0.000000 -9.812794 17.634913 -4.949548 -1.035981 -1.384430 22.095128 0.000000 0.000000 0.000000 -5.022022 13.575737 -8.502650 6.687356 -1.255085 -2.014107 
0.658563 -0.010562 0.160729 2.375302 22.877929 -6.526533 -0.000000 0.000000 0.000000 -3.221816 -2.034558 -0.127174 0.207415 -1.210577 -0.757055 0.000000 0.000000 0.000000 -0.096393 -0.798349 -1.761726 3.290472 -2.216548 -1.214916 -0.291237 -1.241634 -2.444372 -24.160722 -5.636702 0.481088 -39.485793 2.676597 3.058173 -0.844436 -22.331155 2.767153 -0.170323 -1.222586 -0.474189 14.332859 8.265902 1.711508 59.661676 -1.215346 -5.745018 -0.252967 46.808363 -0.785745 0.000000 0.000000 -0.000000 -12.469138 15.424451 -2.498921 -0.905442 1.849195 20.311829 0.000000 0.000000 0.000000 -8.999221 15.404230 -8.805610 6.545426 -2.618942 -0.413253 
0.913290 -0.027370 0.190248 3.655637 22.099297 -6.538970 -0.000000 0.000000 0.000000 -4.502294 -3.197327 0.006608 0.048022 -0.977341 -0.761253 0.000000 0.000000 0.000000 0.253872 -1.221337 -1.836909 2.959525 -3.047426 -1.784627 -0.547622 -1.228450 -2.318685 -28.533097 -4.566268 1.515423 -39.679956 8.567756 -3.625639 -1.298587 -22.215455 2.882079 -0.124059 -1.219344 -0.401587 13.516039 7.410750 1.984535 59.237131 0.776558 -6.236518 0.002116 40.901522 -0.644551 0.000000 0.000000 -0.000000 -14.202337 15.036892 -0.826153 -1.633778 2.327805 18.638509 0.000000 0.000000 0.000000 -11.035632 16.116044 -11.468934 5.807000 -4.607246 4.778904 
1.178997 -0.044180 0.154152 4.273547 20.746270 -6.082326 -0.000000 0.000000 -0.000000 -5.500640 -2.935142 0.655036 0.033618 -0.908975 -0.807073 0.000000 0.000000 0.000000 0.427493 -1.340073 -1.802552 2.762980 -4.258932 -1.255856 -0.520743 -1.313378 -2.289109 -31.094928 -3.717948 2.145565 -37.062313 9.077377 -2.100711 -0.778880 -21.398297 4.963733 -0.051856 -1.229328 -0.363665 12.405248 7.405241 1.867502 59.479833 2.954400 -6.051349 0.194457 41.735293 -0.541547 0.000000 0.000000 -0.000000 -15.234216 15.126795 -0.684795 -1.827439 2.859268 17.791958 0.000000 0.000000 0.000000 -12.437512 15.121437 -14.432626 4.986206 -4.852958 10.801067 
1.509540 -0.047894 0.101627 4.464923 20.458163 -5.588083 -0.000000 0.000000 -0.000000 -6.065094 -2.498596 0.494031 -0.036524 -0.855736 -0.785410 0.000000 0.000000 0.000000 0.351697 -1.413447 -1.889964 2.492855 -5.302383 -0.758581 -0.533754 -1.452957 -2.187233 -33.615213 -2.683950 3.019062 -34.195573 8.792795 -1.182831 -0.247311 -18.394779 6.834072 -0.056095 -1.246932 -0.272926 10.746740 7.583416 1.777111 60.623604 4.096140 -6.322519 0.313284 43.146574 -0.548706 0.000000 0.000000 -0.000000 -15.964860 15.366028 -0.785514 -1.884120 3.099873 16.937085 0.000000 0.000000 0.000000 -13.554070 13.819463 -16.342617 4.491468 -4.426510 15.160738 
1.880150 -0.037756 0.041563 4.446541 20.589764 -5.323193 -0.000000 0.000000 -0.000000 -6.501902 -2.235497 0.051103 -0.147504 -0.830720 -0.729440 0.000000 0.000000 0.000000 0.155150 -1.456263 -1.930110 2.264632 -5.968547 -0.369203 -0.644227 -1.516797 -2.113118 -35.400773 -1.641336 3.487135 -32.116668 8.248043 -0.325931 0.175050 -14.492195 8.127089 -0.166954 -1.268557 -0.246867 9.408329 7.477970 1.639007 62.162355 3.818264 -6.543482 0.467449 42.896780 -0.542429 0.000000 0.000000 -0.000000 -16.396085 15.587087 -0.930412 -1.884726 3.309170 16.350208 0.000000 0.000000 0.000000 -14.385984 12.637448 -16.990046 4.250313 -3.813574 17.328231 
2.265795 -0.020356 -0.020917 4.311391 21.225578 -5.197480 -0.000000 0.000000 -0.000000 -6.652856 -2.013008 -0.394113 -0.326284 -0.781785 -0.805027 0.000000 0.000000 0.000000 -0.127373 -1.460696 -2.008378 2.063849 -6.285314 -0.086370 -0.839691 -1.520317 -2.194097 -36.853968 -0.847141 3.776156 -30.404534 7.636246 0.403868 0.551140 -10.246198 8.725085 -0.362369 -1.260717 -0.285699 8.715127 7.187971 1.519960 63.849735 2.873906 -6.955596 0.591322 41.522886 -0.529516 0.000000 0.000000 -0.000000 -16.743892 15.576746 -1.206906 -1.843925 3.471187 16.290463 0.000000 0.000000 0.000000 -15.003255 11.307276 -16.917905 4.083528 -3.422491 18.223983 
2.637689 0.005280 -0.077518 4.115146 22.263340 -5.105169 -0.000000 0.000000 -0.000000 -6.738369 -1.717975 -0.848132 -0.517681 -0.682018 -0.985685 0.000000 0.000000 0.000000 -0.364902 -1.433827 -2.187169 1.850982 -6.365248 0.104972 -1.056447 -1.495841 -2.367360 -37.974235 -0.234337 3.851676 -29.281667 7.153242 0.628871 0.815741 -7.066166 8.868769 -0.595287 -1.196130 -0.410509 8.358459 6.996176 1.448781 65.454179 1.609633 -6.733989 0.702707 39.262096 -0.488880 0.000000 0.000000 -0.000000 -17.018132 15.342694 -1.634727 -1.727135 3.599443 16.573146 0.000000 0.000000 0.000000 -15.427607 9.798462 -16.486661 3.871696 -3.290952 18.374093 
2.966245 0.041564 -0.120515 3.841240 23.322284 -5.029651 -0.000000 0.000000 -0.000000 -6.879207 -1.379802 -1.174806 -0.664533 -0.545912 -1.222060 0.000000 0.000000 0.000000 -0.544676 -1.369019 -2.379259 1.769294 -6.068968 0.277920 -1.238926 -1.433533 -2.592456 -38.633604 0.184348 3.853148 -28.674099 7.182431 0.479768 0.871517 -5.606384 8.695462 -0.861074 -1.067203 -0.541768 8.100797 6.865238 1.393871 67.089118 1.236620 -6.261161 0.822505 36.208452 -0.434076 0.000000 0.000000 -0.000000 -17.136706 15.037271 -2.164753 -1.559749 3.655401 17.084067 0.000000 0.000000 0.000000 -15.623109 8.175234 -15.961704 3.606579 -3.287991 18.146131 
3.247934 0.085499 -0.153609 3.521155 24.144111 -4.960594 -0.000000 0.000000 -0.000000 -7.181760 -1.032277 -1.327454 -0.780027 -0.408507 -1.442630 0.000000 0.000000 0.000000 -0.705776 -1.286718 -2.548513 1.781008 -5.722550 0.404256 -1.378252 -1.350988 -2.775781 -38.868378 0.477678 3.815823 -28.733885 7.538789 0.093706 0.798865 -5.558537 8.446870 -1.108465 -0.915917 -0.636455 7.893512 6.779858 1.339223 68.314467 1.250849 -5.585907 0.903570 33.486491 -0.395259 0.000000 0.000000 -0.000000 -17.105892 14.746712 -2.699861 -1.369691 3.684660 17.616708 0.000000 0.000000 0.000000 -15.603253 6.540141 -15.294162 3.291386 -3.325050 17.395359 
3.479808 0.134840 -0.180952 3.191883 24.597888 -4.889942 -0.000000 0.000000 -0.000000 -7.592922 -0.703666 -1.325795 -0.883127 -0.281771 -1.620422 0.000000 0.000000 0.000000 -0.862088 -1.200790 -2.683533 1.872471 -5.351213 0.441113 -1.498940 -1.259246 -2.918052 -38.736272 0.653574 3.780772 -29.242223 7.796306 -0.318050 0.684122 -6.320527 8.204176 -1.331992 -0.777908 -0.704614 7.720988 6.690771 1.306733 68.921090 1.345820 -4.853046 0.947767 31.564583 -0.383993 0.000000 0.000000 -0.000000 -16.947851 14.521654 -3.191355 -1.204840 3.682200 18.065101 0.000000 0.000000 0.000000 -15.388936 5.040530 -14.478272 2.996664 -3.393365 16.094515 
3.657478 0.188504 -0.205188 2.880471 24.732835 -4.823570 -0.000000 0.000000 -0.000000 -8.020745 -0.484950 -1.224451 -0.993550 -0.155833 -1.773467 0.000000 0.000000 0.000000 -1.022203 -1.120626 -2.788174 2.023368 -5.050113 0.330915 -1.610318 -1.164964 -3.048208 -38.371200 0.758265 3.785931 -30.016644 7.743099 -0.542310 0.590393 -7.257308 8.010014 -1.543516 -0.647983 -0.748576 7.663624 6.602847 1.277077 68.890009 1.589879 -4.429729 0.964287 30.689497 -0.388312 0.000000 0.000000 -0.000000 -16.698997 14.375291 -3.559229 -1.087624 3.682208 18.314956 0.000000 0.000000 0.000000 -15.059003 3.758150 -13.633568 2.707596 -3.473375 14.611304 
3.776227 0.244921 -0.230747 2.620854 24.594347 -4.775814 -0.000000 0.000000 -0.000000 -8.340375 -0.336840 -1.097719 -1.074070 -0.050826 -1.902891 0.000000 0.000000 0.000000 -1.162973 -1.049872 -2.865284 2.225814 -4.845022 0.120906 -1.707862 -1.074842 -3.141183 -37.889476 0.842010 3.804951 -30.801451 7.371546 -0.419739 0.518639 -8.034470 7.845565 -1.726537 -0.523107 -0.778389 7.720188 6.533013 1.248160 68.437634 1.789683 -4.443515 0.970649 30.642318 -0.395795 0.000000 0.000000 -0.000000 -16.421386 14.308437 -3.795117 -1.019827 3.682225 18.354611 0.000000 0.000000 0.000000 -14.702110 2.674721 -12.884321 2.437395 -3.575394 13.173849 
3.841837 0.301884 -0.261644 2.410655 24.207306 -4.745239 -0.000000 0.000000 -0.000000 -8.544699 -0.247047 -0.994190 -1.108618 0.019945 -2.019637 0.000000 0.000000 0.000000 -1.251955 -1.002364 -2.925081 2.453457 -4.757814 -0.124711 -1.771520 -1.001630 -3.217137 -37.322358 0.885470 3.867548 -31.510584 6.848498 0.017576 0.459980 -8.660650 7.685665 -1.839498 -0.426220 -0.804280 7.853726 6.487941 1.218521 67.768380 1.941508 -4.901658 0.966384 31.021078 -0.398371 0.000000 0.000000 -0.000000 -16.166950 14.300106 -3.933298 -1.009008 3.683156 18.241396 0.000000 0.000000 0.000000 -14.379067 1.831402 -12.338600 2.187891 -3.753925 11.987290 
3.859020 0.356503 -0.300030 2.263310 23.628651 -4.714188 -0.000000 0.000000 -0.000000 -8.624610 -0.214175 -0.921465 -1.106244 0.053748 -2.139327 0.000000 0.000000 0.000000 -1.269485 -0.984491 -2.977664 2.699107 -4.704470 -0.344289 -1.791203 -0.939634 -3.284885 -36.720843 0.905790 3.986004 -32.163620 6.368382 0.652843 0.407735 -9.104274 7.531821 -1.865580 -0.377969 -0.838221 7.959456 6.438944 1.195763 67.117256 1.947637 -5.586803 0.956801 31.717371 -0.401706 0.000000 0.000000 -0.000000 -15.938477 14.355903 -4.022856 -1.051994 3.670550 18.095767 0.000000 0.000000 0.000000 -14.102558 1.250346 -12.043998 1.969186 -3.992913 11.103240 
3.831901 0.406285 -0.347147 2.168632 22.972407 -4.682855 -0.000000 0.000000 -0.000000 -8.594482 -0.232568 -0.876793 -1.063920 0.050826 -2.255915 0.000000 0.000000 0.000000 -1.210593 -0.999894 -3.034830 2.881368 -4.715263 -0.502774 -1.761359 -0.952499 -3.328087 -36.096172 0.912293 4.146859 -32.758828 5.987408 1.365742 0.351704 -9.454209 7.375661 -1.806057 -0.382364 -0.881493 8.001219 6.373778 1.180113 66.540844 1.813370 -6.444823 0.940344 32.536114 -0.404461 0.000000 0.000000 -0.000000 -15.722297 14.486067 -4.079133 -1.121071 3.644564 17.946770 0.000000 0.000000 0.000000 -13.862914 0.915483 -11.994479 1.808760 -4.210223 10.551390 
3.764775 0.449200 -0.404133 2.122096 22.294600 -4.640084 -0.000000 0.000000 -0.000000 -8.481221 -0.298066 -0.879424 -0.987222 0.013507 -2.365782 0.000000 0.000000 0.000000 -1.077083 -1.040345 -3.103091 2.977403 -4.767772 -0.581579 -1.682221 -0.996161 -3.359999 -35.445515 0.894154 4.358054 -33.329272 5.759536 2.064511 0.296108 -9.744966 7.236248 -1.657846 -0.446305 -0.938530 7.969769 6.303843 1.176518 66.057324 1.631507 -7.290268 0.921199 33.425853 -0.412564 0.000000 0.000000 -0.000000 -15.510994 14.698033 -4.090483 -1.198507 3.608965 17.779218 0.000000 0.000000 0.000000 -13.652446 0.723025 -12.137491 1.731304 -4.385980 10.262729 
3.664258 0.485659 -0.469114 2.109349 21.624221 -4.582592 -0.000000 0.000000 -0.000000 -8.332105 -0.471617 -0.872042 -0.840051 -0.101180 -2.491178 0.000000 0.000000 0.000000 -0.877363 -1.103127 -3.185131 3.009113 -4.843144 -0.604238 -1.558672 -1.043931 -3.394985 -34.764695 0.864720 4.598371 -33.887431 5.669885 2.700452 0.243763 -10.002860 7.109653 -1.431211 -0.558031 -1.005223 7.855324 6.250258 1.186304 65.690463 1.467882 -8.082667 0.904750 34.411726 -0.420324 0.000000 0.000000 -0.000000 -15.276398 14.991037 -4.081942 -1.297637 3.572310 17.621747 0.000000 0.000000 0.000000 -13.465040 0.609823 -12.384819 1.751998 -4.484826 10.138855 
